Coordinates
version=1
nRows=12
nColumns=24
inDegrees=yes

Units are S.I. units (second, meters, Newtons, ...)
Angles are in degrees.

endheader
time	pelvis_tilt	pelvis_list	pelvis_rotation	pelvis_tx	pelvis_ty	pelvis_tz	hip_flexion_r	hip_adduction_r	hip_rotation_r	knee_angle_r	ankle_angle_r	subtalar_angle_r	mtp_angle_r	hip_flexion_l	hip_adduction_l	hip_rotation_l	knee_angle_l	ankle_angle_l	subtalar_angle_l	mtp_angle_l	lumbar_extension	lumbar_bending	lumbar_rotation
      0.93750000	      2.25881822	     -1.52084184	     -0.38383444	     -0.37456454	      1.07357857	      0.31873854	      4.68697378	      8.21633915	     -1.89576614	    -13.20908810	      2.98888753	    -12.16984665	     -0.81984551	      9.49560148	     -1.95470486	     -0.41539789	    -53.72498594	      5.74132927	    -15.91974048	      1.60419822	      3.34029295	      3.81834589	     -0.24989160
      0.94166667	      2.27598328	     -1.50208404	     -0.45677686	     -0.36948460	      1.07396963	      0.31896683	      4.29300515	      8.21540878	     -1.75778847	    -13.07659944	      3.14725362	    -12.17347387	     -0.82993118	      9.95745317	     -1.87985676	     -0.12716275	    -53.30226855	      6.06589062	    -16.48293518	      1.42215050	      3.30735932	      3.76564641	     -0.17185384
      0.94583333	      2.28958446	     -1.49120914	     -0.52795958	     -0.36444989	      1.07432768	      0.31917621	      3.90221197	      8.22164006	     -1.61557102	    -12.93609828	      3.29702781	    -12.16201341	     -0.84043066	     10.42275300	     -1.81398273	      0.16831585	    -52.86096828	      6.31530593	    -16.97067085	      1.24682867	      3.26494342	      3.73020380	     -0.08983747
      0.95000000	      2.30343329	     -1.45870564	     -0.66279728	     -0.35944860	      1.07467178	      0.31928044	      3.53579928	      8.18144334	     -1.56362896	    -12.85916109	      3.52043556	    -12.14736465	     -0.86598797	     10.86674886	     -1.71178628	      0.41236178	    -52.37641959	      6.52171934	    -17.62779727	      0.88288873	      3.20121713	      3.73561399	      0.06122574
      0.95416667	      2.29655470	     -1.47880632	     -0.69765002	     -0.35444974	      1.07493961	      0.31952401	      3.14881418	      8.22643445	     -1.38793235	    -12.66631716	      3.59371635	    -12.08010659	     -0.87479988	     11.35581672	     -1.68893008	      0.74872447	    -51.90924889	      6.63268131	    -17.79934002	      0.75357667	      3.17213245	      3.70148988	      0.12778221
      0.95833333	      2.29485958	     -1.49033503	     -0.75702323	     -0.34944153	      1.07520083	      0.31967323	      2.76066269	      8.24834427	     -1.26072782	    -12.49449285	      3.73410906	    -12.05254916	     -0.88626182	     11.82155649	     -1.64610549	      1.06975944	    -51.41149146	      6.83723839	    -18.04644153	      0.60501350	      3.15712283	      3.69125631	      0.20881956
      0.96250000	      2.28574490	     -1.50774009	     -0.82689072	     -0.34447006	      1.07541808	      0.31980511	      2.38502316	      8.27168307	     -1.14902559	    -12.32996026	      3.87407002	    -12.01663742	     -0.89835448	     12.29124827	     -1.61059438	      1.38268293	    -50.89664647	      7.00806576	    -18.23340379	      0.45923461	      3.13052772	      3.69964008	      0.29135807
      0.96666667	      2.26458356	     -1.51362962	     -0.92948910	     -0.33955287	      1.07559986	      0.31986821	      2.03274425	      8.26857353	     -1.04635692	    -12.18838755	      3.96118180	    -11.98875899	     -0.90513947	     12.76151457	     -1.55558492	      1.69308690	    -50.35098682	      7.11857626	    -18.30990968	      0.38107935	      3.07870128	      3.71894971	      0.33749593
      0.97083333	      2.25290157	     -1.55162848	     -0.96386693	     -0.33459691	      1.07574754	      0.31998841	      1.64102360	      8.31781159	     -0.92330178	    -11.97667803	      4.10608363	    -11.94241859	     -0.91519921	     13.23022816	     -1.54382192	      2.03557851	    -49.80686115	      7.27191670	    -18.39371945	      0.27091832	      3.07679751	      3.73732888	      0.41876768
      0.97500000	      2.23748429	     -1.60121941	     -1.00715283	     -0.32962757	      1.07586770	      0.32009301	      1.25328598	      8.37538194	     -0.83886921	    -11.76762802	      4.27014755	    -11.88824162	     -0.92934297	     13.69378819	     -1.54552029	      2.36417917	    -49.24880940	      7.41861163	    -18.41372121	      0.13263376	      3.07182868	      3.77720446	      0.51819867
      0.97916667	      2.21656594	     -1.64531372	     -1.05484631	     -0.32468543	      1.07595646	      0.32013825	      0.87050884	      8.41838853	     -0.75014709	    -11.55825544	      4.42134871	    -11.81870389	     -0.94671346	     14.15363887	     -1.53463716	      2.70898428	    -48.66419378	      7.54901856	    -18.35141990	     -0.02099467	      3.05919093	      3.82987791	      0.62458281
      0.98333333	      2.16442972	     -1.67274610	     -1.21512163	     -0.31975274	      1.07600585	      0.32018359	      0.54517345	      8.42306439	     -0.68010345	    -11.40614544	      4.58148315	    -11.35688494	     -1.22066391	     14.61495851	     -1.51785285	      2.96132261	    -48.06322481	      8.06287085	    -17.74638378	     -2.01513768	      3.04846335	      3.99733372	      1.34204229
